<svg width="25" height="24" viewBox="0 0 25 24" fill="none" xmlns="http://www.w3.org/2000/svg">
    <circle cx="12.5" cy="12" r="7" fill="red"/>
    <path d="M13.0153 7.69604L13.0153 13.528H12.0313L12.0313 7.69604H13.0153ZM12.5113 14.728C12.7033 14.728 12.8673 14.788 13.0033 14.908C13.1313 15.028 13.1953 15.18 13.1953 15.364C13.1953 15.556 13.1313 15.708 13.0033 15.82C12.8673 15.94 12.7033 16 12.5113 16C12.3193 16 12.1593 15.94 12.0313 15.82C11.8953 15.708 11.8273 15.556 11.8273 15.364C11.8273 15.18 11.8953 15.028 12.0313 14.908C12.1593 14.788 12.3193 14.728 12.5113 14.728Z" fill="white"/>
</svg>
