<svg width="14" height="14" viewBox="0 0 14 14" fill="none" xmlns="http://www.w3.org/2000/svg">
<circle cx="7" cy="7" r="7" fill="#FF6600"/>
<path d="M7.51516 2.696L7.51516 8.528H6.53116L6.53116 2.696H7.51516ZM7.01116 9.728C7.20316 9.728 7.36716 9.788 7.50316 9.908C7.63116 10.028 7.69516 10.18 7.69516 10.364C7.69516 10.556 7.63116 10.708 7.50316 10.82C7.36716 10.94 7.20316 11 7.01116 11C6.81916 11 6.65916 10.94 6.53116 10.82C6.39516 10.708 6.32716 10.556 6.32716 10.364C6.32716 10.18 6.39516 10.028 6.53116 9.908C6.65916 9.788 6.81916 9.728 7.01116 9.728Z" fill="white"/>
</svg>
