<svg width="24" height="24" viewBox="0 0 24 24"   xmlns="http://www.w3.org/2000/svg">
<path   clip-rule="evenodd" d="M12 1.6875C13.3922 1.6875 14.7422 1.95938 16.0125 2.49609C17.2406 3.01641 18.3422 3.75937 19.2914 4.70625C20.2383 5.65312 20.9836 6.75703 21.5015 7.98516C22.0406 9.25781 22.3125 10.6078 22.3125 12C22.3125 13.3922 22.0406 14.7422 21.5039 16.0125C20.9836 17.2406 20.2406 18.3422 19.2937 19.2914C18.3469 20.2383 17.243 20.9836 16.0148 21.5016C14.7422 22.0406 13.3922 22.3125 12 22.3125C10.6078 22.3125 9.2578 22.0406 7.98748 21.5039C6.75936 20.9836 5.65779 20.2406 4.70858 19.2937C3.7617 18.3469 3.01639 17.243 2.49842 16.0148C1.95936 14.7422 1.68748 13.3922 1.68748 12C1.68748 10.6078 1.95936 9.25781 2.49608 7.9875C3.01639 6.75937 3.75936 5.65781 4.70623 4.70859C5.65311 3.76172 6.75701 3.01641 7.98514 2.49844C9.25779 1.95938 10.6078 1.6875 12 1.6875ZM12 0C5.37187 0 0 5.37188 0 12C0 18.6281 5.37187 24 12 24C18.6281 24 24 18.6281 24 12C24 5.37188 18.6281 0 12 0ZM12 15C11.482 15 11.0625 14.5805 11.0625 14.0625V5.41406C11.0625 4.89609 11.482 4.47656 12 4.47656C12.518 4.47656 12.9375 4.89609 12.9375 5.41406V14.0625C12.9375 14.5805 12.518 15 12 15ZM10.9453 17.5547C10.9453 16.9722 11.4175 16.5 12 16.5C12.5825 16.5 13.0547 16.9722 13.0547 17.5547C13.0547 18.1372 12.5825 18.6094 12 18.6094C11.4175 18.6094 10.9453 18.1372 10.9453 17.5547Z" />
</svg>
