<svg width="24" height="24" viewBox="0 0 24 24" xmlns="http://www.w3.org/2000/svg">
<path fill-rule="evenodd" clip-rule="evenodd" d="M16.9055 7.1625L9.22971 14.8617L7.22815 11.3578C6.99611 10.9523 6.48283 10.8117 6.07736 11.0437C5.6719 11.2758 5.53127 11.7891 5.7633 12.1945L8.3133 16.6594C8.46799 16.9313 8.75393 17.0859 9.0469 17.0859C9.18986 17.0859 9.33283 17.0508 9.46408 16.9758C9.53908 16.9313 9.60705 16.8797 9.6633 16.8187C9.66565 16.8164 9.67033 16.8117 9.67268 16.8094L18.0985 8.35781C18.4266 8.02734 18.4266 7.49297 18.0961 7.16484C17.768 6.83203 17.236 6.83203 16.9055 7.1625ZM12 0C5.37187 0 0 5.37188 0 12C0 18.6281 5.37187 24 12 24C18.6281 24 24 18.6281 24 12C24 5.37188 18.6281 0 12 0ZM19.2914 19.2914C18.3445 20.2383 17.2406 20.9836 16.0125 21.5016C14.7422 22.0406 13.3922 22.3125 12 22.3125C10.6078 22.3125 9.2578 22.0406 7.98748 21.5039C6.75936 20.9836 5.65779 20.2406 4.70858 19.2937C3.7617 18.3469 3.01639 17.243 2.49842 16.0148C1.95936 14.7422 1.68748 13.3922 1.68748 12C1.68748 10.6078 1.95936 9.25781 2.49608 7.9875C3.01639 6.75937 3.75936 5.65781 4.70623 4.70859C5.65311 3.76172 6.75701 3.01641 7.98514 2.49844C9.25779 1.95938 10.6078 1.6875 12 1.6875C13.3922 1.6875 14.7422 1.95938 16.0125 2.49609C17.2406 3.01641 18.3422 3.75937 19.2914 4.70625C20.2383 5.65312 20.9836 6.75703 21.5015 7.98516C22.0406 9.25781 22.3125 10.6078 22.3125 12C22.3125 13.3922 22.0406 14.7422 21.5039 16.0125C20.9836 17.2406 20.2406 18.3445 19.2914 19.2914Z"/>
</svg>
