<svg width="12" height="12" viewBox="0 0 12 12" fill="none" xmlns="http://www.w3.org/2000/svg">
<g clip-path="url(#clip0)">
<path fill-rule="evenodd" clip-rule="evenodd" d="M9.37381 4.0406C9.76434 3.65008 9.76434 3.01691 9.37382 2.62639C8.98329 2.23587 8.35013 2.23587 7.9596 2.62639L6.00004 4.58595L4.04048 2.62639C3.64996 2.23587 3.01679 2.23587 2.62627 2.62639C2.23574 3.01691 2.23574 3.65008 2.62627 4.0406L4.58583 6.00016L2.62627 7.95972C2.23574 8.35025 2.23574 8.98341 2.62627 9.37394C3.01679 9.76446 3.64996 9.76446 4.04048 9.37394L6.00004 7.41438L7.9596 9.37394C8.35013 9.76446 8.98329 9.76446 9.37382 9.37394C9.76434 8.98341 9.76434 8.35025 9.37381 7.95972L7.41425 6.00016L9.37381 4.0406Z" fill="white"/>
</g>
<defs>
<clipPath id="clip0">
<rect width="8" height="8" fill="white" transform="translate(2 2)"/>
</clipPath>
</defs>
</svg>
