<svg width="26" height="26" viewBox="0 0 26 26" fill="none" xmlns="http://www.w3.org/2000/svg">
<path fill-rule="evenodd" clip-rule="evenodd" d="M7.04102 13.0012C7.04102 9.7099 9.70827 7.04175 12.9987 7.04175C16.2892 7.04175 18.9577 9.7099 18.9577 13.0012C18.9577 16.2913 16.2892 18.9583 12.9987 18.9583C9.70827 18.9583 7.04102 16.2913 7.04102 13.0012Z" fill="#52AE30"/>
<path fill-rule="evenodd" clip-rule="evenodd" d="M17.333 5.4162C17.333 3.62078 18.7882 2.16626 20.583 2.16626C22.3778 2.16626 23.833 3.62078 23.833 5.4162C23.833 7.21162 22.3778 8.66614 20.583 8.66614C18.7882 8.66614 17.333 7.21162 17.333 5.4162Z" fill="#52AE30"/>
<path fill-rule="evenodd" clip-rule="evenodd" d="M12.9838 0V4.69765C8.40633 4.70459 4.69765 8.41904 4.69765 13C4.69765 17.5856 8.41442 21.3023 13 21.3023C17.5579 21.3023 21.3023 17.6214 21.3023 12.9688L26 12.9723C26 20.1805 20.1805 26 13 26C5.82066 26 0 20.1805 0 13C0 5.82528 5.81257 0.0092428 12.9838 0Z" fill="#2A644A"/>
</svg>
