<svg width="56" viewBox="0 0 56 56" fill="none" xmlns="http://www.w3.org/2000/svg">
<path fill-rule="evenodd" clip-rule="evenodd" d="M15.6019 28.0026C15.6019 20.9136 21.3468 15.1668 28.434 15.1668C35.5212 15.1668 41.2686 20.9136 41.2686 28.0026C41.2686 35.089 35.5212 40.8332 28.434 40.8332C21.3468 40.8332 15.6019 35.089 15.6019 28.0026Z" fill="#52AE30"/>
<path fill-rule="evenodd" clip-rule="evenodd" d="M37.333 11.6655C37.333 7.7984 40.4672 4.66559 44.333 4.66559C48.1988 4.66559 51.333 7.7984 51.333 11.6655C51.333 15.5325 48.1988 18.6653 44.333 18.6653C40.4672 18.6653 37.333 15.5325 37.333 11.6655Z" fill="#006648"/>
<path fill-rule="evenodd" clip-rule="evenodd" d="M27.9652 0V10.118C18.1059 10.133 10.118 18.1333 10.118 28C10.118 37.8766 18.1234 45.882 28 45.882C37.8169 45.882 45.882 37.9538 45.882 27.9328L56 27.9403C56 43.4657 43.4657 56 28 56C12.5368 56 0 43.4657 0 28C0 12.5467 12.5194 0.0199076 27.9652 0Z" fill="#006648"/>
</svg>
