<svg width="22" height="22" viewBox="0 0 22 22" fill="none" xmlns="http://www.w3.org/2000/svg">
<path d="M10.2667 0V2.93333H11.7333V0H10.2667Z" fill="#1B82E3"/>
<path d="M4.91854 5.34812L2.71854 3.14812L1.68146 4.18521L3.88146 6.38521L4.91854 5.34812Z" fill="#1B82E3"/>
<path d="M18.1185 6.38521L20.3185 4.18521L19.2815 3.14812L17.0815 5.34812L18.1185 6.38521Z" fill="#1B82E3"/>
<path d="M11 4.4C8.11033 4.4 5.66042 6.52479 5.25176 9.3854L5.23702 9.48859C5.00351 11.1232 5.47128 12.68 6.39479 13.8731C6.95707 14.5996 7.33333 15.293 7.33333 15.9886V18.3333C7.33333 18.7383 7.66166 19.0667 8.06667 19.0667H13.9333C14.3383 19.0667 14.6667 18.7383 14.6667 18.3333V15.9886C14.6667 15.2929 15.0429 14.5995 15.6052 13.8731C16.5287 12.6799 16.9964 11.1232 16.7629 9.4886L16.7482 9.3854C16.3395 6.5248 13.8896 4.4 11 4.4Z" fill="#1B82E3"/>
<path d="M0 11.7333H2.93333V10.2667H0V11.7333Z" fill="#1B82E3"/>
<path d="M19.0667 11.7333H22V10.2667H19.0667V11.7333Z" fill="#1B82E3"/>
<path d="M8.8 22H13.2V20.5333H8.8V22Z" fill="#1B82E3"/>
</svg>
